<svg xmlns="http://www.w3.org/2000/svg" width="1024" height="1024" viewBox="0 0 1024 1024">
  <defs>
    <clipPath id="sq">
      <path d="M512 0C880 0 1024 144 1024 512C1024 880 880 1024 512 1024C144 1024 0 880 0 512C0 144 144 0 512 0Z"/>
    </clipPath>
    <linearGradient id="bg" x1="0" y1="0" x2="0" y2="1">
      <stop offset="0" stop-color="#1d3340"/>
      <stop offset="1" stop-color="#0c1820"/>
    </linearGradient>
    <linearGradient id="top" x1="0.2" y1="0" x2="0.8" y2="1">
      <stop offset="0" stop-color="#7ed4f0"/>
      <stop offset="1" stop-color="#4eb6d8"/>
    </linearGradient>
    <linearGradient id="left" x1="0" y1="0" x2="1" y2="0.5">
      <stop offset="0" stop-color="#3b8fb0"/>
      <stop offset="1" stop-color="#2a6e8a"/>
    </linearGradient>
    <linearGradient id="right" x1="0" y1="0" x2="1" y2="0.5">
      <stop offset="0" stop-color="#1f5670"/>
      <stop offset="1" stop-color="#143f55"/>
    </linearGradient>
    <linearGradient id="acc-top" x1="0.2" y1="0" x2="0.8" y2="1">
      <stop offset="0" stop-color="#a9e7f5"/>
      <stop offset="1" stop-color="#7ed4f0"/>
    </linearGradient>
  </defs>

  <g clip-path="url(#sq)">
    <rect width="1024" height="1024" fill="url(#bg)"/>

    <g opacity="0.06" stroke="#7ed4f0" stroke-width="1.5" fill="none">
      <line x1="-200" y1="1100" x2="500" y2="700"/>
      <line x1="-100" y1="1100" x2="600" y2="700"/>
      <line x1="0" y1="1100" x2="700" y2="700"/>
      <line x1="100" y1="1100" x2="800" y2="700"/>
      <line x1="200" y1="1100" x2="900" y2="700"/>
      <line x1="300" y1="1100" x2="1000" y2="700"/>
      <line x1="400" y1="1100" x2="1100" y2="700"/>
      <line x1="500" y1="1100" x2="1200" y2="700"/>
      <line x1="600" y1="1100" x2="1300" y2="700"/>
      <line x1="700" y1="1100" x2="1400" y2="700"/>
      <line x1="800" y1="1100" x2="1500" y2="700"/>
      <line x1="900" y1="1100" x2="1600" y2="700"/>
      <line x1="1000" y1="1100" x2="1700" y2="700"/>
      <line x1="1100" y1="1100" x2="1800" y2="700"/>
      <line x1="1224" y1="1100" x2="524" y2="700"/>
      <line x1="1124" y1="1100" x2="424" y2="700"/>
      <line x1="1024" y1="1100" x2="324" y2="700"/>
      <line x1="924" y1="1100" x2="224" y2="700"/>
      <line x1="824" y1="1100" x2="124" y2="700"/>
      <line x1="724" y1="1100" x2="24" y2="700"/>
      <line x1="624" y1="1100" x2="-76" y2="700"/>
      <line x1="524" y1="1100" x2="-176" y2="700"/>
      <line x1="424" y1="1100" x2="-276" y2="700"/>
      <line x1="324" y1="1100" x2="-376" y2="700"/>
      <line x1="224" y1="1100" x2="-476" y2="700"/>
      <line x1="124" y1="1100" x2="-576" y2="700"/>
      <line x1="24" y1="1100" x2="-676" y2="700"/>
      <line x1="-76" y1="1100" x2="-776" y2="700"/>
    </g>

    <path d="M160 720L512 896L864 720L512 544Z" opacity="0.5" fill="none" stroke="#3b8fb0" stroke-width="3"/>

    <g>
      <path d="M208.953 612.5L360.45 700L360.45 875L208.953 787.5Z" fill="url(#left)"/>
      <path d="M511.947 612.5L360.45 700L360.45 875L511.947 787.5Z" fill="url(#right)"/>
      <path d="M360.45 525L511.947 612.5L360.45 700L208.953 612.5Z" fill="url(#top)" stroke="#ffffff" stroke-opacity="0.25" stroke-width="2"/>
    </g>
    <g>
      <path d="M512.053 612.5L663.55 700L663.55 875L512.053 787.5Z" fill="url(#left)"/>
      <path d="M815.047 612.5L663.55 700L663.55 875L815.047 787.5Z" fill="url(#right)"/>
      <path d="M663.55 525L815.047 612.5L663.55 700L512.053 612.5Z" fill="url(#top)" stroke="#ffffff" stroke-opacity="0.25" stroke-width="2"/>
    </g>
    <g>
      <path d="M360.503 437.5L512 525L512 700L360.503 612.5Z" fill="#4eb6d8"/>
      <path d="M663.497 437.5L512 525L512 700L663.497 612.5Z" fill="#2a6e8a"/>
      <path d="M512 350L663.497 437.5L512 525L360.503 437.5Z" fill="url(#acc-top)" stroke="#ffffff" stroke-opacity="0.25" stroke-width="2"/>
    </g>

    <ellipse cx="512" cy="-100" rx="700" ry="400" fill="#ffffff" opacity="0.06"/>
  </g>
  <path d="M512 0C880 0 1024 144 1024 512C1024 880 880 1024 512 1024C144 1024 0 880 0 512C0 144 144 0 512 0Z" fill="none" stroke="#ffffff" stroke-opacity="0.08" stroke-width="2"/>
</svg>
