<svg xmlns="http://www.w3.org/2000/svg" width="240" height="180" viewBox="0 0 240 180">
  <defs>
    <pattern id="grid" width="12" height="12" patternUnits="userSpaceOnUse">
      <rect width="12" height="12" fill="rgba(255,255,255,0.012)"/>
      <circle cx="6" cy="6" r="0.8" fill="rgba(255,255,255,0.04)"/>
    </pattern>
  </defs>
  <rect width="240" height="180" fill="url(#grid)"/>
  <g transform="translate(120 82)">
    <path d="M-80 26 L0 72 L0 24 L-80 -22 Z" fill="#6f7e80"/>
    <path d="M0 24 L86 -25 L86 23 L0 72 Z" fill="#566568"/>
    <path d="M-80 -22 L0 24 L86 -25 L6 -71 Z" fill="#8a999b"/>
    <path d="M-32 -50 L6 -71 L6 -8 L-32 14 Z" fill="#6f7e80"/>
    <path d="M6 -71 L43 -50 L43 -30 L6 -8 Z" fill="#566568"/>
    <path d="M-32 -50 L6 -71 L43 -50 L6 -29 Z" fill="#9aa8aa"/>
    <path d="M-80 26 L0 72 L86 23" fill="none" stroke="rgba(255,255,255,0.10)" stroke-width="1"/>
  </g>
</svg>
