<svg xmlns="http://www.w3.org/2000/svg" viewBox="-75.28 -58 150.56 116" preserveAspectRatio="xMidYMid meet"><defs><pattern id="grid" width="6" height="6" patternUnits="userSpaceOnUse"><rect width="6" height="6" fill="rgba(255,255,255,0.015)"/><circle cx="3" cy="3" r="0.4" fill="rgba(255,255,255,0.04)"/></pattern></defs><rect x="-75.28" y="-58" width="150.56" height="116" fill="url(#grid)"/><polygon points="0.0,-32.0 69.3,8.0 0.0,48.0 -69.3,8.0" fill="#9caeae" stroke="rgba(255,255,255,0.08)" stroke-width="0.4" stroke-linejoin="round"/><polygon points="-69.3,12.0 0.0,52.0 0.0,48.0 -69.3,8.0" fill="#7d9291" stroke="rgba(255,255,255,0.08)" stroke-width="0.4" stroke-linejoin="round"/><polygon points="0.0,-28.0 -69.3,12.0 -69.3,8.0 0.0,-32.0" fill="#5d7372" stroke="rgba(255,255,255,0.08)" stroke-width="0.4" stroke-linejoin="round"/><polygon points="0.0,-52.0 3.5,-50.0 -65.8,-10.0 -69.3,-12.0" fill="#9caeae" stroke="rgba(255,255,255,0.08)" stroke-width="0.4" stroke-linejoin="round"/><polygon points="-69.3,12.0 -65.8,14.0 -65.8,-10.0 -69.3,-12.0" fill="#7d9291" stroke="rgba(255,255,255,0.08)" stroke-width="0.4" stroke-linejoin="round"/><polygon points="0.0,-28.0 -69.3,12.0 -69.3,-12.0 0.0,-52.0" fill="#5d7372" stroke="rgba(255,255,255,0.08)" stroke-width="0.4" stroke-linejoin="round"/><polygon points="65.8,-14.0 69.3,-12.0 0.0,28.0 -3.5,26.0" fill="#9caeae" stroke="rgba(255,255,255,0.08)" stroke-width="0.4" stroke-linejoin="round"/><polygon points="-3.5,50.0 0.0,52.0 0.0,28.0 -3.5,26.0" fill="#7d9291" stroke="rgba(255,255,255,0.08)" stroke-width="0.4" stroke-linejoin="round"/><polygon points="65.8,10.0 -3.5,50.0 -3.5,26.0 65.8,-14.0" fill="#5d7372" stroke="rgba(255,255,255,0.08)" stroke-width="0.4" stroke-linejoin="round"/><polygon points="-65.8,-14.0 3.5,26.0 0.0,28.0 -69.3,-12.0" fill="#9caeae" stroke="rgba(255,255,255,0.08)" stroke-width="0.4" stroke-linejoin="round"/><polygon points="-69.3,12.0 0.0,52.0 0.0,28.0 -69.3,-12.0" fill="#7d9291" stroke="rgba(255,255,255,0.08)" stroke-width="0.4" stroke-linejoin="round"/><polygon points="-65.8,10.0 -69.3,12.0 -69.3,-12.0 -65.8,-14.0" fill="#5d7372" stroke="rgba(255,255,255,0.08)" stroke-width="0.4" stroke-linejoin="round"/></svg>
