<svg xmlns="http://www.w3.org/2000/svg" viewBox="-75.28 -64 150.56 128" preserveAspectRatio="xMidYMid meet"><defs><pattern id="grid" width="6" height="6" patternUnits="userSpaceOnUse"><rect width="6" height="6" fill="rgba(255,255,255,0.015)"/><circle cx="3" cy="3" r="0.4" fill="rgba(255,255,255,0.04)"/></pattern></defs><rect x="-75.28" y="-64" width="150.56" height="128" fill="url(#grid)"/><polygon points="-27.7,-58.0 69.3,-2.0 27.7,22.0 -69.3,-34.0" fill="#ad9e98" stroke="rgba(255,255,255,0.08)" stroke-width="0.4" stroke-linejoin="round"/><polygon points="-69.3,2.0 27.7,58.0 27.7,22.0 -69.3,-34.0" fill="#947f78" stroke="rgba(255,255,255,0.08)" stroke-width="0.4" stroke-linejoin="round"/><polygon points="-27.7,-22.0 -69.3,2.0 -69.3,-34.0 -27.7,-58.0" fill="#75625d" stroke="rgba(255,255,255,0.08)" stroke-width="0.4" stroke-linejoin="round"/><polygon points="-12.4,-49.2 -11.5,-48.7 -53.1,-24.7 -54.0,-25.2" fill="#ad9e98" stroke="rgba(255,255,255,0.08)" stroke-width="0.4" stroke-linejoin="round"/><polygon points="-54.0,10.8 -53.1,11.3 -53.1,-24.7 -54.0,-25.2" fill="#947f78" stroke="rgba(255,255,255,0.08)" stroke-width="0.4" stroke-linejoin="round"/><polygon points="-12.4,-13.2 -54.0,10.8 -54.0,-25.2 -12.4,-49.2" fill="#75625d" stroke="rgba(255,255,255,0.08)" stroke-width="0.4" stroke-linejoin="round"/><polygon points="3.8,-39.8 4.6,-39.3 -36.9,-15.3 -37.8,-15.8" fill="#ad9e98" stroke="rgba(255,255,255,0.08)" stroke-width="0.4" stroke-linejoin="round"/><polygon points="-37.8,20.2 -36.9,20.7 -36.9,-15.3 -37.8,-15.8" fill="#947f78" stroke="rgba(255,255,255,0.08)" stroke-width="0.4" stroke-linejoin="round"/><polygon points="3.8,-3.8 -37.8,20.2 -37.8,-15.8 3.8,-39.8" fill="#75625d" stroke="rgba(255,255,255,0.08)" stroke-width="0.4" stroke-linejoin="round"/><polygon points="19.9,-30.5 20.8,-30.0 -20.8,-6.0 -21.6,-6.5" fill="#ad9e98" stroke="rgba(255,255,255,0.08)" stroke-width="0.4" stroke-linejoin="round"/><polygon points="-21.6,29.5 -20.8,30.0 -20.8,-6.0 -21.6,-6.5" fill="#947f78" stroke="rgba(255,255,255,0.08)" stroke-width="0.4" stroke-linejoin="round"/><polygon points="19.9,5.5 -21.6,29.5 -21.6,-6.5 19.9,-30.5" fill="#75625d" stroke="rgba(255,255,255,0.08)" stroke-width="0.4" stroke-linejoin="round"/><polygon points="36.1,-21.2 36.9,-20.7 -4.6,3.3 -5.5,2.8" fill="#ad9e98" stroke="rgba(255,255,255,0.08)" stroke-width="0.4" stroke-linejoin="round"/><polygon points="-5.5,38.8 -4.6,39.3 -4.6,3.3 -5.5,2.8" fill="#947f78" stroke="rgba(255,255,255,0.08)" stroke-width="0.4" stroke-linejoin="round"/><polygon points="36.1,14.8 -5.5,38.8 -5.5,2.8 36.1,-21.2" fill="#75625d" stroke="rgba(255,255,255,0.08)" stroke-width="0.4" stroke-linejoin="round"/><polygon points="52.2,-11.8 53.1,-11.3 11.5,12.7 10.7,12.2" fill="#ad9e98" stroke="rgba(255,255,255,0.08)" stroke-width="0.4" stroke-linejoin="round"/><polygon points="10.7,48.2 11.5,48.7 11.5,12.7 10.7,12.2" fill="#947f78" stroke="rgba(255,255,255,0.08)" stroke-width="0.4" stroke-linejoin="round"/><polygon points="52.2,24.2 10.7,48.2 10.7,12.2 52.2,-11.8" fill="#75625d" stroke="rgba(255,255,255,0.08)" stroke-width="0.4" stroke-linejoin="round"/></svg>
