<svg xmlns="http://www.w3.org/2000/svg" viewBox="-40.07623050235535 -72.26917669624794 80.1524610047107 145.94367467682264" preserveAspectRatio="xMidYMid meet"><defs><pattern id="grid" width="6" height="6" patternUnits="userSpaceOnUse"><rect width="6" height="6" fill="rgba(255,255,255,0.015)"/><circle cx="3" cy="3" r="0.4" fill="rgba(255,255,255,0.04)"/></pattern></defs><rect x="-40.07623050235535" y="-72.26917669624794" width="80.1524610047107" height="145.94367467682264" fill="url(#grid)"/><polygon points="24.2,33.2 11.3,37.9 -3.8,38.9 -18.2,36.0 -29.0,29.7 -34.1,21.4 -32.4,12.7 -24.2,5.2 -11.3,0.5 3.8,-0.5 18.2,2.4 29.0,8.7 34.1,17.0 32.4,25.7" fill="#a7b3a0" stroke="rgba(255,255,255,0.08)" stroke-width="0.4" stroke-linejoin="round"/><polygon points="24.2,62.0 11.3,66.7 11.3,37.9 24.2,33.2" fill="#899986" stroke="rgba(255,255,255,0.08)" stroke-width="0.4" stroke-linejoin="round"/><polygon points="11.3,66.7 -3.8,67.7 -3.8,38.9 11.3,37.9" fill="#899986" stroke="rgba(255,255,255,0.08)" stroke-width="0.4" stroke-linejoin="round"/><polygon points="-3.8,67.7 -18.2,64.8 -18.2,36.0 -3.8,38.9" fill="#778878" stroke="rgba(255,255,255,0.08)" stroke-width="0.4" stroke-linejoin="round"/><polygon points="-18.2,64.8 -29.0,58.5 -29.0,29.7 -18.2,36.0" fill="#778878" stroke="rgba(255,255,255,0.08)" stroke-width="0.4" stroke-linejoin="round"/><polygon points="-29.0,58.5 -34.1,50.2 -34.1,21.4 -29.0,29.7" fill="#778878" stroke="rgba(255,255,255,0.08)" stroke-width="0.4" stroke-linejoin="round"/><polygon points="-34.1,50.2 -32.4,41.5 -32.4,12.7 -34.1,21.4" fill="#778878" stroke="rgba(255,255,255,0.08)" stroke-width="0.4" stroke-linejoin="round"/><polygon points="34.1,45.8 32.4,54.5 32.4,25.7 34.1,17.0" fill="#899986" stroke="rgba(255,255,255,0.08)" stroke-width="0.4" stroke-linejoin="round"/><polygon points="32.4,54.5 24.2,62.0 24.2,33.2 32.4,25.7" fill="#899986" stroke="rgba(255,255,255,0.08)" stroke-width="0.4" stroke-linejoin="round"/><polygon points="19.1,-17.8 8.9,-14.1 -3.0,-13.3 -14.3,-15.6 -22.8,-20.5 -26.8,-27.1 -25.4,-33.9 -19.1,-39.8 -8.9,-43.5 3.0,-44.3 14.3,-42.0 22.8,-37.1 26.8,-30.5 25.4,-23.7" fill="#a7b3a0" stroke="rgba(255,255,255,0.08)" stroke-width="0.4" stroke-linejoin="round"/><polygon points="19.1,30.2 8.9,33.9 8.9,-14.1 19.1,-17.8" fill="#899986" stroke="rgba(255,255,255,0.08)" stroke-width="0.4" stroke-linejoin="round"/><polygon points="8.9,33.9 -3.0,34.7 -3.0,-13.3 8.9,-14.1" fill="#899986" stroke="rgba(255,255,255,0.08)" stroke-width="0.4" stroke-linejoin="round"/><polygon points="-3.0,34.7 -14.3,32.4 -14.3,-15.6 -3.0,-13.3" fill="#778878" stroke="rgba(255,255,255,0.08)" stroke-width="0.4" stroke-linejoin="round"/><polygon points="-14.3,32.4 -22.8,27.5 -22.8,-20.5 -14.3,-15.6" fill="#778878" stroke="rgba(255,255,255,0.08)" stroke-width="0.4" stroke-linejoin="round"/><polygon points="-22.8,27.5 -26.8,20.9 -26.8,-27.1 -22.8,-20.5" fill="#778878" stroke="rgba(255,255,255,0.08)" stroke-width="0.4" stroke-linejoin="round"/><polygon points="-26.8,20.9 -25.4,14.1 -25.4,-33.9 -26.8,-27.1" fill="#778878" stroke="rgba(255,255,255,0.08)" stroke-width="0.4" stroke-linejoin="round"/><polygon points="26.8,17.5 25.4,24.3 25.4,-23.7 26.8,-30.5" fill="#899986" stroke="rgba(255,255,255,0.08)" stroke-width="0.4" stroke-linejoin="round"/><polygon points="25.4,24.3 19.1,30.2 19.1,-17.8 25.4,-23.7" fill="#899986" stroke="rgba(255,255,255,0.08)" stroke-width="0.4" stroke-linejoin="round"/><polygon points="22.5,-35.0 10.5,-30.6 -3.6,-29.7 -16.9,-32.4 -27.0,-38.2 -31.6,-45.9 -30.1,-54.1 -22.5,-61.0 -10.5,-65.4 3.6,-66.3 16.9,-63.6 27.0,-57.8 31.6,-50.1 30.1,-41.9" fill="#a7b3a0" stroke="rgba(255,255,255,0.08)" stroke-width="0.4" stroke-linejoin="round"/><polygon points="22.5,-15.8 10.5,-11.4 10.5,-30.6 22.5,-35.0" fill="#899986" stroke="rgba(255,255,255,0.08)" stroke-width="0.4" stroke-linejoin="round"/><polygon points="10.5,-11.4 -3.6,-10.5 -3.6,-29.7 10.5,-30.6" fill="#899986" stroke="rgba(255,255,255,0.08)" stroke-width="0.4" stroke-linejoin="round"/><polygon points="-3.6,-10.5 -16.9,-13.2 -16.9,-32.4 -3.6,-29.7" fill="#778878" stroke="rgba(255,255,255,0.08)" stroke-width="0.4" stroke-linejoin="round"/><polygon points="-16.9,-13.2 -27.0,-19.0 -27.0,-38.2 -16.9,-32.4" fill="#778878" stroke="rgba(255,255,255,0.08)" stroke-width="0.4" stroke-linejoin="round"/><polygon points="-27.0,-19.0 -31.6,-26.7 -31.6,-45.9 -27.0,-38.2" fill="#778878" stroke="rgba(255,255,255,0.08)" stroke-width="0.4" stroke-linejoin="round"/><polygon points="-31.6,-26.7 -30.1,-34.9 -30.1,-54.1 -31.6,-45.9" fill="#778878" stroke="rgba(255,255,255,0.08)" stroke-width="0.4" stroke-linejoin="round"/><polygon points="31.6,-30.9 30.1,-22.7 30.1,-41.9 31.6,-50.1" fill="#899986" stroke="rgba(255,255,255,0.08)" stroke-width="0.4" stroke-linejoin="round"/><polygon points="30.1,-22.7 22.5,-15.8 22.5,-35.0 30.1,-41.9" fill="#899986" stroke="rgba(255,255,255,0.08)" stroke-width="0.4" stroke-linejoin="round"/></svg>
