<svg xmlns="http://www.w3.org/2000/svg" viewBox="-49.3 -38.2 98.6 91.2" preserveAspectRatio="xMidYMid meet"><defs><pattern id="grid" width="6" height="6" patternUnits="userSpaceOnUse"><rect width="6" height="6" fill="rgba(255,255,255,0.015)"/><circle cx="3" cy="3" r="0.4" fill="rgba(255,255,255,0.04)"/></pattern></defs><rect x="-49.3" y="-38.2" width="98.6" height="91.2" fill="url(#grid)"/><polygon points="-12.1,-20.6 43.3,11.4 12.1,29.4 -43.3,-2.6" fill="#ad9e98" stroke="rgba(255,255,255,0.08)" stroke-width="0.4" stroke-linejoin="round"/><polygon points="-43.3,15.0 12.1,47.0 12.1,29.4 -43.3,-2.6" fill="#947f78" stroke="rgba(255,255,255,0.08)" stroke-width="0.4" stroke-linejoin="round"/><polygon points="-12.1,-3.0 -43.3,15.0 -43.3,-2.6 -12.1,-20.6" fill="#75625d" stroke="rgba(255,255,255,0.08)" stroke-width="0.4" stroke-linejoin="round"/><polygon points="-12.1,-32.2 21.1,-13.0 0.3,-1.0 -32.9,-20.2" fill="#ad9e98" stroke="rgba(255,255,255,0.08)" stroke-width="0.4" stroke-linejoin="round"/><polygon points="-32.9,-2.6 0.3,16.6 0.3,-1.0 -32.9,-20.2" fill="#947f78" stroke="rgba(255,255,255,0.08)" stroke-width="0.4" stroke-linejoin="round"/><polygon points="-12.1,-14.6 -32.9,-2.6 -32.9,-20.2 -12.1,-32.2" fill="#75625d" stroke="rgba(255,255,255,0.08)" stroke-width="0.4" stroke-linejoin="round"/><polygon points="10.4,-28.0 21.5,-21.6 18.0,-19.6 6.9,-26.0" fill="#ad9e98" stroke="rgba(255,255,255,0.08)" stroke-width="0.4" stroke-linejoin="round"/><polygon points="6.9,-4.0 18.0,2.4 18.0,-19.6 6.9,-26.0" fill="#947f78" stroke="rgba(255,255,255,0.08)" stroke-width="0.4" stroke-linejoin="round"/><polygon points="10.4,-6.0 6.9,-4.0 6.9,-26.0 10.4,-28.0" fill="#75625d" stroke="rgba(255,255,255,0.08)" stroke-width="0.4" stroke-linejoin="round"/></svg>
