<svg xmlns="http://www.w3.org/2000/svg" viewBox="-56.228 -43 111.59 85.5" preserveAspectRatio="xMidYMid meet"><defs><pattern id="grid" width="6" height="6" patternUnits="userSpaceOnUse"><rect width="6" height="6" fill="rgba(255,255,255,0.015)"/><circle cx="3" cy="3" r="0.4" fill="rgba(255,255,255,0.04)"/></pattern></defs><rect x="-56.228" y="-43" width="111.59" height="85.5" fill="url(#grid)"/><polygon points="-32.9,-37.0 -13.0,-25.5 -30.3,-15.5 -50.2,-27.0" fill="#ad9e98" stroke="rgba(255,255,255,0.08)" stroke-width="0.4" stroke-linejoin="round"/><polygon points="-50.2,-11.0 -30.3,0.5 -30.3,-15.5 -50.2,-27.0" fill="#947f78" stroke="rgba(255,255,255,0.08)" stroke-width="0.4" stroke-linejoin="round"/><polygon points="-32.9,-21.0 -50.2,-11.0 -50.2,-27.0 -32.9,-37.0" fill="#75625d" stroke="rgba(255,255,255,0.08)" stroke-width="0.4" stroke-linejoin="round"/><polygon points="-12.1,-25.0 7.8,-13.5 -9.5,-3.5 -29.4,-15.0" fill="#ad9e98" stroke="rgba(255,255,255,0.08)" stroke-width="0.4" stroke-linejoin="round"/><polygon points="-29.4,1.0 -9.5,12.5 -9.5,-3.5 -29.4,-15.0" fill="#947f78" stroke="rgba(255,255,255,0.08)" stroke-width="0.4" stroke-linejoin="round"/><polygon points="-12.1,-9.0 -29.4,1.0 -29.4,-15.0 -12.1,-25.0" fill="#75625d" stroke="rgba(255,255,255,0.08)" stroke-width="0.4" stroke-linejoin="round"/><polygon points="8.7,-13.0 28.6,-1.5 11.3,8.5 -8.7,-3.0" fill="#ad9e98" stroke="rgba(255,255,255,0.08)" stroke-width="0.4" stroke-linejoin="round"/><polygon points="-8.7,13.0 11.3,24.5 11.3,8.5 -8.7,-3.0" fill="#947f78" stroke="rgba(255,255,255,0.08)" stroke-width="0.4" stroke-linejoin="round"/><polygon points="8.7,3.0 -8.7,13.0 -8.7,-3.0 8.7,-13.0" fill="#75625d" stroke="rgba(255,255,255,0.08)" stroke-width="0.4" stroke-linejoin="round"/><polygon points="29.4,-1.0 49.4,10.5 32.0,20.5 12.1,9.0" fill="#ad9e98" stroke="rgba(255,255,255,0.08)" stroke-width="0.4" stroke-linejoin="round"/><polygon points="12.1,25.0 32.0,36.5 32.0,20.5 12.1,9.0" fill="#947f78" stroke="rgba(255,255,255,0.08)" stroke-width="0.4" stroke-linejoin="round"/><polygon points="29.4,15.0 12.1,25.0 12.1,9.0 29.4,-1.0" fill="#75625d" stroke="rgba(255,255,255,0.08)" stroke-width="0.4" stroke-linejoin="round"/></svg>
