<svg xmlns="http://www.w3.org/2000/svg" viewBox="-49.3 -38 97.734 75.5" preserveAspectRatio="xMidYMid meet"><defs><pattern id="grid" width="6" height="6" patternUnits="userSpaceOnUse"><rect width="6" height="6" fill="rgba(255,255,255,0.015)"/><circle cx="3" cy="3" r="0.4" fill="rgba(255,255,255,0.04)"/></pattern></defs><rect x="-49.3" y="-38" width="97.734" height="75.5" fill="url(#grid)"/><polygon points="-26.0,-32.0 -9.5,-22.5 -26.8,-12.5 -43.3,-22.0" fill="#9caeae" stroke="rgba(255,255,255,0.08)" stroke-width="0.4" stroke-linejoin="round"/><polygon points="-43.3,-8.0 -26.8,1.5 -26.8,-12.5 -43.3,-22.0" fill="#7d9291" stroke="rgba(255,255,255,0.08)" stroke-width="0.4" stroke-linejoin="round"/><polygon points="-26.0,-18.0 -43.3,-8.0 -43.3,-22.0 -26.0,-32.0" fill="#5d7372" stroke="rgba(255,255,255,0.08)" stroke-width="0.4" stroke-linejoin="round"/><polygon points="-8.7,-22.0 7.8,-12.5 -9.5,-2.5 -26.0,-12.0" fill="#9caeae" stroke="rgba(255,255,255,0.08)" stroke-width="0.4" stroke-linejoin="round"/><polygon points="-26.0,2.0 -9.5,11.5 -9.5,-2.5 -26.0,-12.0" fill="#7d9291" stroke="rgba(255,255,255,0.08)" stroke-width="0.4" stroke-linejoin="round"/><polygon points="-8.7,-8.0 -26.0,2.0 -26.0,-12.0 -8.7,-22.0" fill="#5d7372" stroke="rgba(255,255,255,0.08)" stroke-width="0.4" stroke-linejoin="round"/><polygon points="8.7,-12.0 25.1,-2.5 7.8,7.5 -8.7,-2.0" fill="#9caeae" stroke="rgba(255,255,255,0.08)" stroke-width="0.4" stroke-linejoin="round"/><polygon points="-8.7,12.0 7.8,21.5 7.8,7.5 -8.7,-2.0" fill="#7d9291" stroke="rgba(255,255,255,0.08)" stroke-width="0.4" stroke-linejoin="round"/><polygon points="8.7,2.0 -8.7,12.0 -8.7,-2.0 8.7,-12.0" fill="#5d7372" stroke="rgba(255,255,255,0.08)" stroke-width="0.4" stroke-linejoin="round"/><polygon points="26.0,-2.0 42.4,7.5 25.1,17.5 8.7,8.0" fill="#9caeae" stroke="rgba(255,255,255,0.08)" stroke-width="0.4" stroke-linejoin="round"/><polygon points="8.7,22.0 25.1,31.5 25.1,17.5 8.7,8.0" fill="#7d9291" stroke="rgba(255,255,255,0.08)" stroke-width="0.4" stroke-linejoin="round"/><polygon points="26.0,12.0 8.7,22.0 8.7,8.0 26.0,-2.0" fill="#5d7372" stroke="rgba(255,255,255,0.08)" stroke-width="0.4" stroke-linejoin="round"/></svg>
