<svg xmlns="http://www.w3.org/2000/svg" viewBox="-37.176 -62 74.352 124" preserveAspectRatio="xMidYMid meet"><defs><pattern id="grid" width="6" height="6" patternUnits="userSpaceOnUse"><rect width="6" height="6" fill="rgba(255,255,255,0.015)"/><circle cx="3" cy="3" r="0.4" fill="rgba(255,255,255,0.04)"/></pattern></defs><rect x="-37.176" y="-62" width="74.352" height="124" fill="url(#grid)"/><polygon points="0.0,-56.0 31.2,-38.0 0.0,-20.0 -31.2,-38.0" fill="#9caeae" stroke="rgba(255,255,255,0.08)" stroke-width="0.4" stroke-linejoin="round"/><polygon points="-31.2,38.0 0.0,56.0 0.0,-20.0 -31.2,-38.0" fill="#7d9291" stroke="rgba(255,255,255,0.08)" stroke-width="0.4" stroke-linejoin="round"/><polygon points="0.0,20.0 -31.2,38.0 -31.2,-38.0 0.0,-56.0" fill="#5d7372" stroke="rgba(255,255,255,0.08)" stroke-width="0.4" stroke-linejoin="round"/><polygon points="0.0,4.3 31.2,22.3 0.0,40.3 -31.2,22.3" fill="#9caeae" stroke="rgba(255,255,255,0.08)" stroke-width="0.4" stroke-linejoin="round"/><polygon points="-31.2,23.3 0.0,41.3 0.0,40.3 -31.2,22.3" fill="#7d9291" stroke="rgba(255,255,255,0.08)" stroke-width="0.4" stroke-linejoin="round"/><polygon points="0.0,5.3 -31.2,23.3 -31.2,22.3 0.0,4.3" fill="#5d7372" stroke="rgba(255,255,255,0.08)" stroke-width="0.4" stroke-linejoin="round"/><polygon points="0.0,-10.9 31.2,7.1 0.0,25.1 -31.2,7.1" fill="#9caeae" stroke="rgba(255,255,255,0.08)" stroke-width="0.4" stroke-linejoin="round"/><polygon points="-31.2,8.1 0.0,26.1 0.0,25.1 -31.2,7.1" fill="#7d9291" stroke="rgba(255,255,255,0.08)" stroke-width="0.4" stroke-linejoin="round"/><polygon points="0.0,-9.9 -31.2,8.1 -31.2,7.1 0.0,-10.9" fill="#5d7372" stroke="rgba(255,255,255,0.08)" stroke-width="0.4" stroke-linejoin="round"/><polygon points="0.0,-26.1 31.2,-8.1 0.0,9.9 -31.2,-8.1" fill="#9caeae" stroke="rgba(255,255,255,0.08)" stroke-width="0.4" stroke-linejoin="round"/><polygon points="-31.2,-7.1 0.0,10.9 0.0,9.9 -31.2,-8.1" fill="#7d9291" stroke="rgba(255,255,255,0.08)" stroke-width="0.4" stroke-linejoin="round"/><polygon points="0.0,-25.1 -31.2,-7.1 -31.2,-8.1 0.0,-26.1" fill="#5d7372" stroke="rgba(255,255,255,0.08)" stroke-width="0.4" stroke-linejoin="round"/><polygon points="0.0,-41.3 31.2,-23.3 0.0,-5.3 -31.2,-23.3" fill="#9caeae" stroke="rgba(255,255,255,0.08)" stroke-width="0.4" stroke-linejoin="round"/><polygon points="-31.2,-22.3 0.0,-4.3 0.0,-5.3 -31.2,-23.3" fill="#7d9291" stroke="rgba(255,255,255,0.08)" stroke-width="0.4" stroke-linejoin="round"/><polygon points="0.0,-40.3 -31.2,-22.3 -31.2,-23.3 0.0,-41.3" fill="#5d7372" stroke="rgba(255,255,255,0.08)" stroke-width="0.4" stroke-linejoin="round"/></svg>
