<svg xmlns="http://www.w3.org/2000/svg" viewBox="-49.3 -49 98.6 98" preserveAspectRatio="xMidYMid meet"><defs><pattern id="grid" width="6" height="6" patternUnits="userSpaceOnUse"><rect width="6" height="6" fill="rgba(255,255,255,0.015)"/><circle cx="3" cy="3" r="0.4" fill="rgba(255,255,255,0.04)"/></pattern></defs><rect x="-49.3" y="-49" width="98.6" height="98" fill="url(#grid)"/><polygon points="-5.2,-13.0 43.3,15.0 5.2,37.0 -43.3,9.0" fill="#9caeae" stroke="rgba(255,255,255,0.08)" stroke-width="0.4" stroke-linejoin="round"/><polygon points="-43.3,15.0 5.2,43.0 5.2,37.0 -43.3,9.0" fill="#7d9291" stroke="rgba(255,255,255,0.08)" stroke-width="0.4" stroke-linejoin="round"/><polygon points="-5.2,-7.0 -43.3,15.0 -43.3,9.0 -5.2,-13.0" fill="#5d7372" stroke="rgba(255,255,255,0.08)" stroke-width="0.4" stroke-linejoin="round"/><polygon points="-5.2,-43.0 0.0,-40.0 -38.1,-18.0 -43.3,-21.0" fill="#9caeae" stroke="rgba(255,255,255,0.08)" stroke-width="0.4" stroke-linejoin="round"/><polygon points="-43.3,15.0 -38.1,18.0 -38.1,-18.0 -43.3,-21.0" fill="#7d9291" stroke="rgba(255,255,255,0.08)" stroke-width="0.4" stroke-linejoin="round"/><polygon points="-5.2,-7.0 -43.3,15.0 -43.3,-21.0 -5.2,-43.0" fill="#5d7372" stroke="rgba(255,255,255,0.08)" stroke-width="0.4" stroke-linejoin="round"/><polygon points="38.1,-18.0 43.3,-15.0 5.2,7.0 0.0,4.0" fill="#9caeae" stroke="rgba(255,255,255,0.08)" stroke-width="0.4" stroke-linejoin="round"/><polygon points="0.0,40.0 5.2,43.0 5.2,7.0 0.0,4.0" fill="#7d9291" stroke="rgba(255,255,255,0.08)" stroke-width="0.4" stroke-linejoin="round"/><polygon points="38.1,18.0 0.0,40.0 0.0,4.0 38.1,-18.0" fill="#5d7372" stroke="rgba(255,255,255,0.08)" stroke-width="0.4" stroke-linejoin="round"/></svg>
