<svg xmlns="http://www.w3.org/2000/svg" viewBox="-52.53893991057381 -35.87005768508881 105.07787982114762 71.74011537017762" preserveAspectRatio="xMidYMid meet"><defs><pattern id="grid" width="6" height="6" patternUnits="userSpaceOnUse"><rect width="6" height="6" fill="rgba(255,255,255,0.015)"/><circle cx="3" cy="3" r="0.4" fill="rgba(255,255,255,0.04)"/></pattern></defs><rect x="-52.53893991057381" y="-35.87005768508881" width="105.07787982114762" height="71.74011537017762" fill="url(#grid)"/><polygon points="32.9,16.0 17.8,21.8 0.0,23.9 -17.8,21.8 -32.9,16.0 -43.0,7.3 -46.5,-3.0 -43.0,-13.3 -32.9,-22.0 -17.8,-27.8 -0.0,-29.9 17.8,-27.8 32.9,-22.0 43.0,-13.3 46.5,-3.0 43.0,7.3" fill="#a7b3a0" stroke="rgba(255,255,255,0.08)" stroke-width="0.4" stroke-linejoin="round"/><polygon points="32.9,22.0 17.8,27.8 17.8,21.8 32.9,16.0" fill="#899986" stroke="rgba(255,255,255,0.08)" stroke-width="0.4" stroke-linejoin="round"/><polygon points="17.8,27.8 0.0,29.9 0.0,23.9 17.8,21.8" fill="#899986" stroke="rgba(255,255,255,0.08)" stroke-width="0.4" stroke-linejoin="round"/><polygon points="0.0,29.9 -17.8,27.8 -17.8,21.8 0.0,23.9" fill="#778878" stroke="rgba(255,255,255,0.08)" stroke-width="0.4" stroke-linejoin="round"/><polygon points="-17.8,27.8 -32.9,22.0 -32.9,16.0 -17.8,21.8" fill="#778878" stroke="rgba(255,255,255,0.08)" stroke-width="0.4" stroke-linejoin="round"/><polygon points="-32.9,22.0 -43.0,13.3 -43.0,7.3 -32.9,16.0" fill="#778878" stroke="rgba(255,255,255,0.08)" stroke-width="0.4" stroke-linejoin="round"/><polygon points="-43.0,13.3 -46.5,3.0 -46.5,-3.0 -43.0,7.3" fill="#778878" stroke="rgba(255,255,255,0.08)" stroke-width="0.4" stroke-linejoin="round"/><polygon points="46.5,3.0 43.0,13.3 43.0,7.3 46.5,-3.0" fill="#899986" stroke="rgba(255,255,255,0.08)" stroke-width="0.4" stroke-linejoin="round"/><polygon points="43.0,13.3 32.9,22.0 32.9,16.0 43.0,7.3" fill="#899986" stroke="rgba(255,255,255,0.08)" stroke-width="0.4" stroke-linejoin="round"/></svg>
