<svg xmlns="http://www.w3.org/2000/svg" viewBox="-61.424 -65 122.848 131" preserveAspectRatio="xMidYMid meet"><defs><pattern id="grid" width="6" height="6" patternUnits="userSpaceOnUse"><rect width="6" height="6" fill="rgba(255,255,255,0.015)"/><circle cx="3" cy="3" r="0.4" fill="rgba(255,255,255,0.04)"/></pattern></defs><rect x="-61.424" y="-65" width="122.848" height="131" fill="url(#grid)"/><polygon points="0.0,-17.0 55.4,15.0 0.0,47.0 -55.4,15.0" fill="#9caeae" stroke="rgba(255,255,255,0.08)" stroke-width="0.4" stroke-linejoin="round"/><polygon points="-55.4,28.0 0.0,60.0 0.0,47.0 -55.4,15.0" fill="#7d9291" stroke="rgba(255,255,255,0.08)" stroke-width="0.4" stroke-linejoin="round"/><polygon points="0.0,-4.0 -55.4,28.0 -55.4,15.0 0.0,-17.0" fill="#5d7372" stroke="rgba(255,255,255,0.08)" stroke-width="0.4" stroke-linejoin="round"/><polygon points="0.0,-31.0 55.4,1.0 0.0,33.0 -55.4,1.0" fill="#9caeae" stroke="rgba(255,255,255,0.08)" stroke-width="0.4" stroke-linejoin="round"/><polygon points="-55.4,14.0 0.0,46.0 0.0,33.0 -55.4,1.0" fill="#7d9291" stroke="rgba(255,255,255,0.08)" stroke-width="0.4" stroke-linejoin="round"/><polygon points="0.0,-18.0 -55.4,14.0 -55.4,1.0 0.0,-31.0" fill="#5d7372" stroke="rgba(255,255,255,0.08)" stroke-width="0.4" stroke-linejoin="round"/><polygon points="0.0,-45.0 55.4,-13.0 0.0,19.0 -55.4,-13.0" fill="#9caeae" stroke="rgba(255,255,255,0.08)" stroke-width="0.4" stroke-linejoin="round"/><polygon points="-55.4,0.0 0.0,32.0 0.0,19.0 -55.4,-13.0" fill="#7d9291" stroke="rgba(255,255,255,0.08)" stroke-width="0.4" stroke-linejoin="round"/><polygon points="0.0,-32.0 -55.4,0.0 -55.4,-13.0 0.0,-45.0" fill="#5d7372" stroke="rgba(255,255,255,0.08)" stroke-width="0.4" stroke-linejoin="round"/><polygon points="0.0,-59.0 55.4,-27.0 0.0,5.0 -55.4,-27.0" fill="#9caeae" stroke="rgba(255,255,255,0.08)" stroke-width="0.4" stroke-linejoin="round"/><polygon points="-55.4,-14.0 0.0,18.0 0.0,5.0 -55.4,-27.0" fill="#7d9291" stroke="rgba(255,255,255,0.08)" stroke-width="0.4" stroke-linejoin="round"/><polygon points="0.0,-46.0 -55.4,-14.0 -55.4,-27.0 0.0,-59.0" fill="#5d7372" stroke="rgba(255,255,255,0.08)" stroke-width="0.4" stroke-linejoin="round"/></svg>
