<svg xmlns="http://www.w3.org/2000/svg" viewBox="-54.68032928907908 -72.10642568653526 109.36065857815817 144.21285137307052" preserveAspectRatio="xMidYMid meet"><defs><pattern id="grid" width="6" height="6" patternUnits="userSpaceOnUse"><rect width="6" height="6" fill="rgba(255,255,255,0.015)"/><circle cx="3" cy="3" r="0.4" fill="rgba(255,255,255,0.04)"/></pattern></defs><rect x="-54.68032928907908" y="-72.10642568653526" width="109.36065857815817" height="144.21285137307052" fill="url(#grid)"/><polygon points="34.6,-18.0 16.2,-11.3 -5.5,-9.9 -26.1,-14.1 -41.5,-23.0 -48.7,-34.8 -46.2,-47.3 -34.6,-58.0 -16.2,-64.7 5.5,-66.1 26.1,-61.9 41.5,-53.0 48.7,-41.2 46.2,-28.7" fill="#a7b3a0" stroke="rgba(255,255,255,0.08)" stroke-width="0.4" stroke-linejoin="round"/><polygon points="34.6,58.0 16.2,64.7 16.2,-11.3 34.6,-18.0" fill="#899986" stroke="rgba(255,255,255,0.08)" stroke-width="0.4" stroke-linejoin="round"/><polygon points="16.2,64.7 -5.5,66.1 -5.5,-9.9 16.2,-11.3" fill="#899986" stroke="rgba(255,255,255,0.08)" stroke-width="0.4" stroke-linejoin="round"/><polygon points="-5.5,66.1 -26.1,61.9 -26.1,-14.1 -5.5,-9.9" fill="#778878" stroke="rgba(255,255,255,0.08)" stroke-width="0.4" stroke-linejoin="round"/><polygon points="-26.1,61.9 -41.5,53.0 -41.5,-23.0 -26.1,-14.1" fill="#778878" stroke="rgba(255,255,255,0.08)" stroke-width="0.4" stroke-linejoin="round"/><polygon points="-41.5,53.0 -48.7,41.2 -48.7,-34.8 -41.5,-23.0" fill="#778878" stroke="rgba(255,255,255,0.08)" stroke-width="0.4" stroke-linejoin="round"/><polygon points="-48.7,41.2 -46.2,28.7 -46.2,-47.3 -48.7,-34.8" fill="#778878" stroke="rgba(255,255,255,0.08)" stroke-width="0.4" stroke-linejoin="round"/><polygon points="48.7,34.8 46.2,47.3 46.2,-28.7 48.7,-41.2" fill="#899986" stroke="rgba(255,255,255,0.08)" stroke-width="0.4" stroke-linejoin="round"/><polygon points="46.2,47.3 34.6,58.0 34.6,-18.0 46.2,-28.7" fill="#899986" stroke="rgba(255,255,255,0.08)" stroke-width="0.4" stroke-linejoin="round"/></svg>
