<svg xmlns="http://www.w3.org/2000/svg" viewBox="-57.96 -47 115.92 95" preserveAspectRatio="xMidYMid meet"><defs><pattern id="grid" width="6" height="6" patternUnits="userSpaceOnUse"><rect width="6" height="6" fill="rgba(255,255,255,0.015)"/><circle cx="3" cy="3" r="0.4" fill="rgba(255,255,255,0.04)"/></pattern></defs><rect x="-57.96" y="-47" width="115.92" height="95" fill="url(#grid)"/><polygon points="-24.2,-23.0 52.0,21.0 24.2,37.0 -52.0,-7.0" fill="#9caeae" stroke="rgba(255,255,255,0.08)" stroke-width="0.4" stroke-linejoin="round"/><polygon points="-52.0,-2.0 24.2,42.0 24.2,37.0 -52.0,-7.0" fill="#7d9291" stroke="rgba(255,255,255,0.08)" stroke-width="0.4" stroke-linejoin="round"/><polygon points="-24.2,-18.0 -52.0,-2.0 -52.0,-7.0 -24.2,-23.0" fill="#5d7372" stroke="rgba(255,255,255,0.08)" stroke-width="0.4" stroke-linejoin="round"/><polygon points="-24.2,-29.0 52.0,15.0 24.2,31.0 -52.0,-13.0" fill="#9caeae" stroke="rgba(255,255,255,0.08)" stroke-width="0.4" stroke-linejoin="round"/><polygon points="-52.0,-8.0 24.2,36.0 24.2,31.0 -52.0,-13.0" fill="#7d9291" stroke="rgba(255,255,255,0.08)" stroke-width="0.4" stroke-linejoin="round"/><polygon points="-24.2,-24.0 -52.0,-8.0 -52.0,-13.0 -24.2,-29.0" fill="#5d7372" stroke="rgba(255,255,255,0.08)" stroke-width="0.4" stroke-linejoin="round"/><polygon points="-24.2,-35.0 52.0,9.0 24.2,25.0 -52.0,-19.0" fill="#9caeae" stroke="rgba(255,255,255,0.08)" stroke-width="0.4" stroke-linejoin="round"/><polygon points="-52.0,-14.0 24.2,30.0 24.2,25.0 -52.0,-19.0" fill="#7d9291" stroke="rgba(255,255,255,0.08)" stroke-width="0.4" stroke-linejoin="round"/><polygon points="-24.2,-30.0 -52.0,-14.0 -52.0,-19.0 -24.2,-35.0" fill="#5d7372" stroke="rgba(255,255,255,0.08)" stroke-width="0.4" stroke-linejoin="round"/><polygon points="-24.2,-41.0 52.0,3.0 24.2,19.0 -52.0,-25.0" fill="#9caeae" stroke="rgba(255,255,255,0.08)" stroke-width="0.4" stroke-linejoin="round"/><polygon points="-52.0,-20.0 24.2,24.0 24.2,19.0 -52.0,-25.0" fill="#7d9291" stroke="rgba(255,255,255,0.08)" stroke-width="0.4" stroke-linejoin="round"/><polygon points="-24.2,-36.0 -52.0,-20.0 -52.0,-25.0 -24.2,-41.0" fill="#5d7372" stroke="rgba(255,255,255,0.08)" stroke-width="0.4" stroke-linejoin="round"/></svg>
