<svg xmlns="http://www.w3.org/2000/svg" viewBox="-54.496 -35 108.992 91" preserveAspectRatio="xMidYMid meet"><defs><pattern id="grid" width="6" height="6" patternUnits="userSpaceOnUse"><rect width="6" height="6" fill="rgba(255,255,255,0.015)"/><circle cx="3" cy="3" r="0.4" fill="rgba(255,255,255,0.04)"/></pattern></defs><rect x="-54.496" y="-35" width="108.992" height="91" fill="url(#grid)"/><polygon points="0.0,-17.0 48.5,11.0 0.0,39.0 -48.5,11.0" fill="#9caeae" stroke="rgba(255,255,255,0.08)" stroke-width="0.4" stroke-linejoin="round"/><polygon points="-48.5,22.0 0.0,50.0 0.0,39.0 -48.5,11.0" fill="#7d9291" stroke="rgba(255,255,255,0.08)" stroke-width="0.4" stroke-linejoin="round"/><polygon points="0.0,-6.0 -48.5,22.0 -48.5,11.0 0.0,-17.0" fill="#5d7372" stroke="rgba(255,255,255,0.08)" stroke-width="0.4" stroke-linejoin="round"/><polygon points="0.0,-21.0 36.4,0.0 0.0,21.0 -36.4,0.0" fill="#9caeae" stroke="rgba(255,255,255,0.08)" stroke-width="0.4" stroke-linejoin="round"/><polygon points="-36.4,11.0 0.0,32.0 0.0,21.0 -36.4,0.0" fill="#7d9291" stroke="rgba(255,255,255,0.08)" stroke-width="0.4" stroke-linejoin="round"/><polygon points="0.0,-10.0 -36.4,11.0 -36.4,0.0 0.0,-21.0" fill="#5d7372" stroke="rgba(255,255,255,0.08)" stroke-width="0.4" stroke-linejoin="round"/><polygon points="0.0,-25.0 24.2,-11.0 0.0,3.0 -24.2,-11.0" fill="#9caeae" stroke="rgba(255,255,255,0.08)" stroke-width="0.4" stroke-linejoin="round"/><polygon points="-24.2,0.0 0.0,14.0 0.0,3.0 -24.2,-11.0" fill="#7d9291" stroke="rgba(255,255,255,0.08)" stroke-width="0.4" stroke-linejoin="round"/><polygon points="0.0,-14.0 -24.2,0.0 -24.2,-11.0 0.0,-25.0" fill="#5d7372" stroke="rgba(255,255,255,0.08)" stroke-width="0.4" stroke-linejoin="round"/><polygon points="0.0,-29.0 12.1,-22.0 0.0,-15.0 -12.1,-22.0" fill="#9caeae" stroke="rgba(255,255,255,0.08)" stroke-width="0.4" stroke-linejoin="round"/><polygon points="-12.1,-11.0 0.0,-4.0 0.0,-15.0 -12.1,-22.0" fill="#7d9291" stroke="rgba(255,255,255,0.08)" stroke-width="0.4" stroke-linejoin="round"/><polygon points="0.0,-18.0 -12.1,-11.0 -12.1,-22.0 0.0,-29.0" fill="#5d7372" stroke="rgba(255,255,255,0.08)" stroke-width="0.4" stroke-linejoin="round"/></svg>
