<svg xmlns="http://www.w3.org/2000/svg" viewBox="-37.176 -72 74.352 144" preserveAspectRatio="xMidYMid meet"><defs><pattern id="grid" width="6" height="6" patternUnits="userSpaceOnUse"><rect width="6" height="6" fill="rgba(255,255,255,0.015)"/><circle cx="3" cy="3" r="0.4" fill="rgba(255,255,255,0.04)"/></pattern></defs><rect x="-37.176" y="-72" width="74.352" height="144" fill="url(#grid)"/><polygon points="0.0,-66.0 31.2,-48.0 0.0,-30.0 -31.2,-48.0" fill="#9caeae" stroke="rgba(255,255,255,0.08)" stroke-width="0.4" stroke-linejoin="round"/><polygon points="-31.2,48.0 0.0,66.0 0.0,-30.0 -31.2,-48.0" fill="#7d9291" stroke="rgba(255,255,255,0.08)" stroke-width="0.4" stroke-linejoin="round"/><polygon points="0.0,30.0 -31.2,48.0 -31.2,-48.0 0.0,-66.0" fill="#5d7372" stroke="rgba(255,255,255,0.08)" stroke-width="0.4" stroke-linejoin="round"/><polygon points="0.0,10.3 31.2,28.3 0.0,46.3 -31.2,28.3" fill="#9caeae" stroke="rgba(255,255,255,0.08)" stroke-width="0.4" stroke-linejoin="round"/><polygon points="-31.2,29.3 0.0,47.3 0.0,46.3 -31.2,28.3" fill="#7d9291" stroke="rgba(255,255,255,0.08)" stroke-width="0.4" stroke-linejoin="round"/><polygon points="0.0,11.3 -31.2,29.3 -31.2,28.3 0.0,10.3" fill="#5d7372" stroke="rgba(255,255,255,0.08)" stroke-width="0.4" stroke-linejoin="round"/><polygon points="0.0,-8.9 31.2,9.1 0.0,27.1 -31.2,9.1" fill="#9caeae" stroke="rgba(255,255,255,0.08)" stroke-width="0.4" stroke-linejoin="round"/><polygon points="-31.2,10.1 0.0,28.1 0.0,27.1 -31.2,9.1" fill="#7d9291" stroke="rgba(255,255,255,0.08)" stroke-width="0.4" stroke-linejoin="round"/><polygon points="0.0,-7.9 -31.2,10.1 -31.2,9.1 0.0,-8.9" fill="#5d7372" stroke="rgba(255,255,255,0.08)" stroke-width="0.4" stroke-linejoin="round"/><polygon points="0.0,-28.1 31.2,-10.1 0.0,7.9 -31.2,-10.1" fill="#9caeae" stroke="rgba(255,255,255,0.08)" stroke-width="0.4" stroke-linejoin="round"/><polygon points="-31.2,-9.1 0.0,8.9 0.0,7.9 -31.2,-10.1" fill="#7d9291" stroke="rgba(255,255,255,0.08)" stroke-width="0.4" stroke-linejoin="round"/><polygon points="0.0,-27.1 -31.2,-9.1 -31.2,-10.1 0.0,-28.1" fill="#5d7372" stroke="rgba(255,255,255,0.08)" stroke-width="0.4" stroke-linejoin="round"/><polygon points="0.0,-47.3 31.2,-29.3 0.0,-11.3 -31.2,-29.3" fill="#9caeae" stroke="rgba(255,255,255,0.08)" stroke-width="0.4" stroke-linejoin="round"/><polygon points="-31.2,-28.3 0.0,-10.3 0.0,-11.3 -31.2,-29.3" fill="#7d9291" stroke="rgba(255,255,255,0.08)" stroke-width="0.4" stroke-linejoin="round"/><polygon points="0.0,-46.3 -31.2,-28.3 -31.2,-29.3 0.0,-47.3" fill="#5d7372" stroke="rgba(255,255,255,0.08)" stroke-width="0.4" stroke-linejoin="round"/></svg>
