<svg xmlns="http://www.w3.org/2000/svg" viewBox="-50.953163987738314 -63.95448267190434 101.90632797547663 127.90896534380867" preserveAspectRatio="xMidYMid meet"><defs><pattern id="grid" width="6" height="6" patternUnits="userSpaceOnUse"><rect width="6" height="6" fill="rgba(255,255,255,0.015)"/><circle cx="3" cy="3" r="0.4" fill="rgba(255,255,255,0.04)"/></pattern></defs><rect x="-50.953163987738314" y="-63.95448267190434" width="101.90632797547663" height="127.90896534380867" fill="url(#grid)"/><polygon points="32.9,-13.0 12.0,-6.0 -12.0,-6.0 -32.9,-13.0 -45.0,-25.0 -45.0,-39.0 -32.9,-51.0 -12.0,-58.0 12.0,-58.0 32.9,-51.0 45.0,-39.0 45.0,-25.0" fill="#ad9e98" stroke="rgba(255,255,255,0.08)" stroke-width="0.4" stroke-linejoin="round"/><polygon points="32.9,51.0 12.0,58.0 12.0,-6.0 32.9,-13.0" fill="#947f78" stroke="rgba(255,255,255,0.08)" stroke-width="0.4" stroke-linejoin="round"/><polygon points="12.0,58.0 -12.0,58.0 -12.0,-6.0 12.0,-6.0" fill="#947f78" stroke="rgba(255,255,255,0.08)" stroke-width="0.4" stroke-linejoin="round"/><polygon points="-12.0,58.0 -32.9,51.0 -32.9,-13.0 -12.0,-6.0" fill="#836d67" stroke="rgba(255,255,255,0.08)" stroke-width="0.4" stroke-linejoin="round"/><polygon points="-32.9,51.0 -45.0,39.0 -45.0,-25.0 -32.9,-13.0" fill="#836d67" stroke="rgba(255,255,255,0.08)" stroke-width="0.4" stroke-linejoin="round"/><polygon points="-45.0,39.0 -45.0,25.0 -45.0,-39.0 -45.0,-25.0" fill="#836d67" stroke="rgba(255,255,255,0.08)" stroke-width="0.4" stroke-linejoin="round"/><polygon points="45.0,25.0 45.0,39.0 45.0,-25.0 45.0,-39.0" fill="#947f78" stroke="rgba(255,255,255,0.08)" stroke-width="0.4" stroke-linejoin="round"/><polygon points="45.0,39.0 32.9,51.0 32.9,-13.0 45.0,-25.0" fill="#947f78" stroke="rgba(255,255,255,0.08)" stroke-width="0.4" stroke-linejoin="round"/></svg>
