<svg xmlns="http://www.w3.org/2000/svg" viewBox="-54.988357800604014 -38.2842712474619 109.97671560120803 76.5685424949238" preserveAspectRatio="xMidYMid meet"><defs><pattern id="grid" width="6" height="6" patternUnits="userSpaceOnUse"><rect width="6" height="6" fill="rgba(255,255,255,0.015)"/><circle cx="3" cy="3" r="0.4" fill="rgba(255,255,255,0.04)"/></pattern></defs><rect x="-54.988357800604014" y="-38.2842712474619" width="109.97671560120803" height="76.5685424949238" fill="url(#grid)"/><polygon points="34.6,16.0 18.7,22.1 0.0,24.3 -18.7,22.1 -34.6,16.0 -45.3,6.8 -49.0,-4.0 -45.3,-14.8 -34.6,-24.0 -18.7,-30.1 -0.0,-32.3 18.7,-30.1 34.6,-24.0 45.3,-14.8 49.0,-4.0 45.3,6.8" fill="#9caeae" stroke="rgba(255,255,255,0.08)" stroke-width="0.4" stroke-linejoin="round"/><polygon points="34.6,24.0 18.7,30.1 18.7,22.1 34.6,16.0" fill="#7d9291" stroke="rgba(255,255,255,0.08)" stroke-width="0.4" stroke-linejoin="round"/><polygon points="18.7,30.1 0.0,32.3 0.0,24.3 18.7,22.1" fill="#7d9291" stroke="rgba(255,255,255,0.08)" stroke-width="0.4" stroke-linejoin="round"/><polygon points="0.0,32.3 -18.7,30.1 -18.7,22.1 0.0,24.3" fill="#6c8382" stroke="rgba(255,255,255,0.08)" stroke-width="0.4" stroke-linejoin="round"/><polygon points="-18.7,30.1 -34.6,24.0 -34.6,16.0 -18.7,22.1" fill="#6c8382" stroke="rgba(255,255,255,0.08)" stroke-width="0.4" stroke-linejoin="round"/><polygon points="-34.6,24.0 -45.3,14.8 -45.3,6.8 -34.6,16.0" fill="#6c8382" stroke="rgba(255,255,255,0.08)" stroke-width="0.4" stroke-linejoin="round"/><polygon points="-45.3,14.8 -49.0,4.0 -49.0,-4.0 -45.3,6.8" fill="#6c8382" stroke="rgba(255,255,255,0.08)" stroke-width="0.4" stroke-linejoin="round"/><polygon points="49.0,4.0 45.3,14.8 45.3,6.8 49.0,-4.0" fill="#7d9291" stroke="rgba(255,255,255,0.08)" stroke-width="0.4" stroke-linejoin="round"/><polygon points="45.3,14.8 34.6,24.0 34.6,16.0 45.3,6.8" fill="#7d9291" stroke="rgba(255,255,255,0.08)" stroke-width="0.4" stroke-linejoin="round"/></svg>
